<svg xmlns="http://www.w3.org/2000/svg" version="1.1" xmlns:xlink="http://www.w3.org/1999/xlink" width="33" height="33"><svg width="33" height="33" viewBox="0 0 33 33" fill="none" xmlns="http://www.w3.org/2000/svg">
<path d="M16.4406 32.3807C16.1325 32.3807 15.8244 32.2798 15.5654 32.078C15.494 32.0229 8.34977 26.5 1.44223 26.5C0.647442 26.5 0 25.8349 0 25.0184V1.48165C0 0.665138 0.647442 0 1.44223 0C7.88986 0 14.1723 3.95413 16.4406 5.54587C18.7088 3.95413 24.9913 0 31.4389 0C32.2337 0 32.8811 0.665138 32.8811 1.48165V25.0138C32.8811 25.8349 32.2337 26.4954 31.4389 26.4954C24.5314 26.4954 17.3872 32.0184 17.3157 32.0734C17.0567 32.2752 16.7487 32.3761 16.4406 32.3761V32.3807ZM2.88447 23.5963C8.80521 24.1101 14.342 27.6055 16.4406 29.078C18.5392 27.6055 24.0759 24.1101 29.9967 23.5963V3.04129C23.5713 3.70642 17.3827 8.49083 17.3157 8.54587C16.7978 8.94954 16.0833 8.94954 15.5654 8.54587C15.4984 8.49541 9.30977 3.71101 2.88447 3.04129V23.5963Z" fill="#2186BC"></path>
<path d="M31.4389 0C24.9913 0 18.7089 3.95413 16.4406 5.54587V8.84862C16.7487 8.84862 17.0568 8.74771 17.3157 8.54587C17.3827 8.49541 23.5714 3.70642 29.9967 3.04129V23.5963C24.0759 24.1101 18.5392 27.6055 16.4406 29.078V32.3807C16.7487 32.3807 17.0568 32.2798 17.3157 32.078C17.3872 32.0229 24.5314 26.5 31.4389 26.5C32.2337 26.5 32.8811 25.8349 32.8811 25.0184V1.48165C32.8811 0.665138 32.2337 0 31.4389 0Z" fill="#F9A93F"></path>
<path d="M15.5699 22.7064C15.0653 22.7064 14.6009 22.4358 14.3375 21.9954C13.0739 19.8624 9.60895 16.4083 9.57323 16.3716L8.93025 15.7294C8.71593 15.5138 8.70699 15.1605 8.91686 14.9358L10.1671 13.6101C10.3769 13.3899 10.7208 13.3807 10.9396 13.5963L11.5825 14.2385C11.6897 14.344 13.4266 16.078 14.9805 17.9541C15.2171 18.2385 15.6503 18.2156 15.8512 17.8991C19.1196 12.7936 22.7096 9.40367 22.8837 9.23853L23.549 8.61926C23.7723 8.41284 24.1161 8.4266 24.3215 8.65596L25.5316 10.0183C25.7325 10.2477 25.7191 10.6009 25.4958 10.8119L24.835 11.4312C24.7903 11.4725 20.1556 15.8624 16.8335 21.9495C16.5835 22.4083 16.1146 22.6972 15.6011 22.7064C15.5922 22.7064 15.5833 22.7064 15.5743 22.7064H15.5699Z" fill="#299F9C"></path>
</svg><style>@media (prefers-color-scheme: light) { :root { filter: none; } }
@media (prefers-color-scheme: dark) { :root { filter: none; } }
</style></svg>