<svg width="192" height="46" viewBox="0 0 192 46" fill="none" xmlns="http://www.w3.org/2000/svg">
<path d="M26.7058 42.8762C26.3978 42.8762 26.0897 42.7752 25.8307 42.5734C25.7592 42.5184 18.6151 36.9954 11.7075 36.9954C10.9127 36.9954 10.2653 36.3303 10.2653 35.5138V11.9771C10.2653 11.1606 10.9127 10.4954 11.7075 10.4954C18.1551 10.4954 24.4376 14.4495 26.7058 16.0413C28.9741 14.4495 35.2565 10.4954 41.7042 10.4954C42.499 10.4954 43.1464 11.1606 43.1464 11.9771V35.5092C43.1464 36.3303 42.499 36.9908 41.7042 36.9908C34.7966 36.9908 27.6525 42.5138 27.581 42.5688C27.322 42.7706 27.0139 42.8716 26.7058 42.8716V42.8762ZM13.1498 34.0917C19.0705 34.6055 24.6072 38.1009 26.7058 39.5734C28.8045 38.1009 34.3412 34.6055 40.2619 34.0917V13.5367C33.8366 14.2018 27.648 18.9862 27.581 19.0413C27.0631 19.445 26.3486 19.445 25.8307 19.0413C25.7637 18.9908 19.5751 14.2064 13.1498 13.5367V34.0917Z" fill="#2186BC"/>
<path d="M41.7042 10.4954C35.2566 10.4954 28.9742 14.4495 26.7059 16.0413V19.344C27.014 19.344 27.3221 19.2431 27.581 19.0413C27.648 18.9908 33.8367 14.2018 40.262 13.5367V34.0917C34.3412 34.6055 28.8045 38.1009 26.7059 39.5734V42.8762C27.014 42.8762 27.3221 42.7752 27.581 42.5734C27.6525 42.5184 34.7967 36.9954 41.7042 36.9954C42.499 36.9954 43.1464 36.3303 43.1464 35.5138V11.9771C43.1464 11.1606 42.499 10.4954 41.7042 10.4954Z" fill="#F9A93F"/>
<path d="M25.8352 33.2018C25.3306 33.2018 24.8662 32.9312 24.6028 32.4908C23.3392 30.3578 19.8742 26.9037 19.8385 26.867L19.1955 26.2248C18.9812 26.0092 18.9723 25.656 19.1821 25.4312L20.4324 24.1055C20.6422 23.8853 20.9861 23.8761 21.2048 24.0917L21.8478 24.7339C21.955 24.8394 23.6919 26.5734 25.2458 28.4495C25.4824 28.7339 25.9155 28.711 26.1165 28.3945C29.3849 23.289 32.9749 19.8991 33.149 19.7339L33.8143 19.1147C34.0376 18.9083 34.3814 18.922 34.5868 19.1514L35.7968 20.5138C35.9978 20.7431 35.9844 21.0963 35.7611 21.3073L35.1003 21.9266C35.0556 21.9679 30.4208 26.3578 27.0988 32.445C26.8487 32.9037 26.3799 33.1927 25.8664 33.2018C25.8575 33.2018 25.8486 33.2018 25.8396 33.2018H25.8352Z" fill="#299F9C"/>
<path d="M52.4785 35.4954V13.1009H66.6329V16.2248H54.0458L55.7961 14.3624V24.6468L54.0458 23.0367H66.0793V26.0642H54.0458L55.7961 24.4541V35.4908H52.4785V35.4954Z" fill="#248ABA"/>
<path d="M73.5404 35.8716C71.8392 35.8716 70.4863 35.4725 69.4727 34.6743C68.4591 33.8761 67.9546 32.7523 67.9546 31.2982C67.9546 29.844 68.3788 28.7156 69.2271 27.9083C70.0755 27.1009 71.3927 26.5138 73.1743 26.156L78.7914 25.0505C78.7914 23.7477 78.4923 22.7752 77.9029 22.133C77.309 21.4908 76.4294 21.1697 75.264 21.1697C74.2191 21.1697 73.402 21.4083 72.8082 21.8807C72.2143 22.3532 71.8035 23.055 71.5803 23.9771L68.2359 23.7569C68.544 22.0734 69.3031 20.7523 70.522 19.7844C71.741 18.8165 73.3217 18.3349 75.264 18.3349C77.4742 18.3349 79.1576 18.9404 80.314 20.1468C81.4705 21.3578 82.0465 23.055 82.0465 25.2385V31.7661C82.0465 32.1651 82.1135 32.445 82.2474 32.6009C82.3814 32.7569 82.6002 32.8394 82.9083 32.8394H83.4932V35.4908C83.3905 35.5092 83.2253 35.5321 83.002 35.555C82.7788 35.5734 82.5421 35.5872 82.2965 35.5872C81.6 35.5872 81.0017 35.4725 80.5016 35.2385C80.0015 35.0092 79.6264 34.6239 79.3808 34.0872C79.1352 33.5505 79.0147 32.8303 79.0147 31.9266L79.354 32.0826C79.1888 32.8211 78.8361 33.4725 78.2958 34.0367C77.7511 34.6055 77.0679 35.0505 76.2374 35.3762C75.4069 35.7018 74.5138 35.867 73.5494 35.867L73.5404 35.8716ZM74.0629 33.2248C75.0452 33.2248 75.8846 33.0321 76.5812 32.6422C77.2777 32.2523 77.818 31.711 78.2065 31.0184C78.595 30.3257 78.7914 29.5367 78.7914 28.6514V27.578L74.0004 28.5229C73.018 28.711 72.3259 29.0138 71.9285 29.422C71.5311 29.8303 71.3302 30.3532 71.3302 30.9817C71.3302 31.6972 71.5713 32.2477 72.0536 32.6376C72.5358 33.0275 73.2056 33.2202 74.0629 33.2202V33.2248Z" fill="#248ABA"/>
<path d="M92.0528 35.8716C90.499 35.8716 89.1371 35.5138 87.9673 34.7982C86.7974 34.0826 85.8999 33.0642 85.2659 31.7385C84.6318 30.4128 84.3148 28.867 84.3148 27.1009C84.3148 25.3349 84.6318 23.7936 85.2659 22.4817C85.8999 21.1697 86.8019 20.1468 87.9673 19.422C89.1326 18.6973 90.4945 18.3349 92.0528 18.3349C93.3834 18.3349 94.5667 18.5734 95.5981 19.0459C96.6296 19.5184 97.469 20.2064 98.1165 21.1101C98.7594 22.0138 99.1747 23.1193 99.3578 24.422L95.9509 24.6101C95.7857 23.5184 95.357 22.6789 94.6605 22.1009C93.9639 21.5229 93.0932 21.2339 92.0528 21.2339C90.682 21.2339 89.6104 21.7523 88.8424 22.7936C88.0744 23.8349 87.6904 25.2706 87.6904 27.1009C87.6904 28.9312 88.0744 30.367 88.8424 31.4083C89.6104 32.4495 90.6776 32.9679 92.0528 32.9679C93.0977 32.9679 93.9684 32.6697 94.6605 32.0688C95.357 31.4679 95.7857 30.5596 95.9509 29.3395L99.3578 29.5275C99.1747 30.8119 98.7594 31.9266 98.1165 32.8716C97.4735 33.8165 96.634 34.555 95.5981 35.078C94.5622 35.6009 93.3834 35.867 92.0528 35.867V35.8716Z" fill="#299FAB"/>
<path d="M100.188 21.4587V18.7156H110.257V21.4587H100.188ZM107.216 35.4954C105.663 35.4954 104.515 35.1284 103.778 34.3899C103.041 33.656 102.671 32.5092 102.671 30.9495V14.7706H105.926V30.6972C105.926 31.4771 106.091 32.0138 106.417 32.3073C106.743 32.6009 107.248 32.7477 107.922 32.7477H110.257V35.4908H107.216V35.4954Z" fill="#299FAB"/>
<path d="M112.927 35.4954V13.1009H117.133L127.202 31.3624V13.1009H130.52V35.4954H126.162L116.245 17.6422V35.4954H112.927Z" fill="#FCB047"/>
<path d="M141.111 35.8716C139.513 35.8716 138.137 35.5138 136.981 34.7982C135.824 34.0826 134.936 33.0642 134.311 31.7385C133.686 30.4128 133.373 28.867 133.373 27.1009C133.373 25.3349 133.686 23.7936 134.311 22.4817C134.936 21.1697 135.82 20.1468 136.967 19.422C138.115 18.6973 139.463 18.3349 141.022 18.3349C142.495 18.3349 143.795 18.6881 144.92 19.3899C146.045 20.0963 146.92 21.1101 147.545 22.4358C148.17 23.7615 148.483 25.3578 148.483 27.2294V28.0826H136.753C136.833 29.7248 137.258 30.9541 138.026 31.7706C138.794 32.5872 139.83 33 141.142 33C142.102 33 142.902 32.7706 143.536 32.3073C144.17 31.844 144.612 31.2248 144.857 30.445L148.233 30.6651C147.804 32.2202 146.96 33.4771 145.701 34.4358C144.442 35.3945 142.91 35.8716 141.111 35.8716ZM136.753 25.5596H145.04C144.938 24.0688 144.522 22.9633 143.795 22.2477C143.067 21.5321 142.143 21.1743 141.017 21.1743C139.892 21.1743 138.892 21.5459 138.146 22.2936C137.401 23.0413 136.932 24.1284 136.749 25.5596H136.753Z" fill="#FCB047"/>
<path d="M148.787 35.4954L154.712 26.9174L149.032 18.7156H152.653L156.676 24.7385L160.575 18.7156H164.29L158.672 26.9771L164.535 35.4908H160.914L156.708 29.0872L152.47 35.4908H148.787V35.4954Z" fill="#E34B7E"/>
<path d="M165.919 16.2844V12.9404H169.295V16.2844H165.919ZM165.982 35.4954V18.7156H169.237V35.4954H165.982Z" fill="#E34B7E"/>
<path d="M177.341 35.8716C175.644 35.8716 174.287 35.4725 173.273 34.6743C172.26 33.8761 171.755 32.7523 171.755 31.2982C171.755 29.844 172.179 28.7156 173.028 27.9083C173.876 27.1009 175.193 26.5138 176.97 26.156L182.588 25.0505C182.588 23.7477 182.288 22.7752 181.699 22.133C181.105 21.4908 180.225 21.1697 179.06 21.1697C178.015 21.1697 177.198 21.4083 176.604 21.8807C176.01 22.3532 175.6 23.055 175.376 23.9771L172.032 23.7569C172.34 22.0734 173.099 20.7523 174.318 19.7844C175.537 18.8165 177.118 18.3349 179.06 18.3349C181.27 18.3349 182.954 18.9404 184.11 20.1468C185.267 21.3578 185.843 23.055 185.843 25.2385V31.7661C185.843 32.1651 185.91 32.445 186.043 32.6009C186.177 32.7569 186.396 32.8394 186.704 32.8394H187.289V35.4908C187.187 35.5092 187.021 35.5321 186.798 35.555C186.575 35.5734 186.338 35.5872 186.093 35.5872C185.396 35.5872 184.798 35.4725 184.298 35.2385C183.798 35.0092 183.422 34.6239 183.177 34.0872C182.931 33.5505 182.806 32.8303 182.806 31.9266L183.146 32.0826C182.98 32.8211 182.628 33.4725 182.087 34.0367C181.547 34.6055 180.859 35.0505 180.029 35.3762C179.198 35.7018 178.305 35.867 177.341 35.867V35.8716ZM177.859 33.2248C178.841 33.2248 179.681 33.0321 180.377 32.6422C181.074 32.2523 181.614 31.711 182.003 31.0184C182.391 30.3257 182.588 29.5367 182.588 28.6514V27.578L177.796 28.5229C176.814 28.711 176.122 29.0138 175.725 29.422C175.327 29.8303 175.126 30.3532 175.126 30.9817C175.126 31.6972 175.367 32.2477 175.85 32.6376C176.332 33.0275 177.002 33.2202 177.859 33.2202V33.2248Z" fill="#E34B7E"/>
</svg>
